<?xml version="1.0" encoding="UTF-8"?>
<svg width="2226px" height="1933px" viewBox="0 0 2226 1933" version="1.1" xmlns="http://www.w3.org/2000/svg" xmlns:xlink="http://www.w3.org/1999/xlink">
    <!-- Generator: Sketch 48.2 (47327) - http://www.bohemiancoding.com/sketch -->
    <title>Artboard Copy</title>
    <desc>Created with Sketch.</desc>
    <defs></defs>
    <g id="Page-2" stroke="none" stroke-width="1" fill="none" fill-rule="evenodd">
        <g id="Artboard-Copy" fill="#FFFFFF">
            <path d="M1232,1508 L1319.28346,1504.47931 L1380.35895,1355.20601 C1389.53174,1337.57072 1399.86101,1329.7607 1411.34675,1331.77595 C1428.57537,1334.79883 1431.42237,1349.79582 1425.97798,1363.2759 L1382.21295,1462.4496 C1376.32058,1477.66805 1380.83549,1490.42246 1395.75769,1500.71284 C1410.67989,1511.00322 1432.3233,1509.57345 1460.68794,1496.42351 C1490.27798,1478.56592 1504.77504,1462.31814 1504.17912,1447.68016 C1493.95822,1458.83231 1486.15979,1460.7098 1480.78383,1453.31264 C1477.39168,1448.64514 1479.05152,1438.55583 1485.76335,1423.0447 L1522.32502,1340.8759 C1527.83078,1326.99455 1527.1501,1313.93819 1520.28299,1301.70683 C1509.98232,1283.35978 1488.3545,1282.07924 1463.58173,1283.35978 C1447.06655,1284.21347 1393.40521,1287.70859 1302.59772,1293.84515 C1311.97851,1302.52399 1315.1895,1311.0155 1312.23071,1319.31968 C1309.27191,1327.62386 1282.52834,1390.5173 1232,1508 Z" id="N2---Runners"></path>
            <path d="M1650.66766,1482.44038 C1630.70067,1487.48015 1611.4199,1490 1592.82477,1490 C1571.5458,1490 1553.6762,1485.99115 1539.21544,1477.97333 C1524.75467,1469.9555 1515.21017,1458.00531 1510.58166,1442.12238 C1505.95314,1426.23946 1507.54829,1407.07333 1515.36715,1384.62343 C1523.07963,1362.47897 1536.02744,1342.77833 1554.21096,1325.52092 C1572.39448,1308.26351 1592.78115,1294.8625 1615.37159,1285.31747 C1637.96203,1275.77244 1659.60886,1271 1680.31272,1271 C1696.79913,1271 1710.15548,1274.20708 1720.38217,1280.62134 C1730.60887,1287.0356 1737.05045,1296.19869 1739.7071,1308.11088 C1742.36375,1320.02307 1740.92624,1333.92042 1735.39453,1349.80335 C1734.11798,1353.46864 1731.34081,1359.65372 1727.06295,1368.35879 C1722.78508,1377.06385 1719.35303,1383.47801 1716.7667,1387.60146 L1586.28282,1389.89226 C1581.74176,1406.23335 1583.19553,1419.67254 1590.64419,1430.21025 C1598.09286,1440.74796 1612.64816,1446.01674 1634.31053,1446.01674 C1647.15459,1446.01674 1659.14883,1445.29133 1670.29362,1443.84048 C1681.4384,1442.38964 1693.49027,1439.29709 1706.44959,1434.56276 L1703.18505,1460.44874 C1688.14027,1470.07013 1670.63464,1477.4006 1650.66766,1482.44038 Z M1671.64945,1318.99215 C1668.73404,1312.50154 1661.81292,1309.25628 1650.88588,1309.25628 C1644.368,1309.25628 1637.54493,1311.50887 1630.41647,1316.01412 C1623.28801,1320.51937 1616.50925,1327.04807 1610.07999,1335.60042 C1603.65074,1344.15276 1598.22328,1354.23216 1593.79748,1365.83891 L1663.20727,1360.57008 C1664.26108,1359.1956 1665.51683,1356.82847 1666.97455,1353.46862 C1668.43228,1350.10877 1669.53345,1347.35984 1670.2781,1345.22176 C1674.10775,1334.22589 1674.56486,1325.48277 1671.64945,1318.99215 Z" id="e"></path>
            <path d="M983,1522 L1070.28346,1518.47931 L1131.35895,1369.20601 C1140.53174,1351.57072 1150.86101,1343.7607 1162.34675,1345.77595 C1179.57537,1348.79883 1182.42237,1363.79582 1176.97798,1377.2759 L1133.21295,1476.4496 C1127.32058,1491.66805 1131.83549,1504.42246 1146.75769,1514.71284 C1161.67989,1525.00322 1183.3233,1523.57345 1211.68794,1510.42351 C1241.27798,1492.56592 1255.77504,1476.31814 1255.17912,1461.68016 C1244.95822,1472.83231 1237.15979,1474.7098 1231.78383,1467.31264 C1228.39168,1462.64514 1230.05152,1452.55583 1236.76335,1437.0447 L1273.32502,1354.8759 C1278.83078,1340.99455 1278.1501,1327.93819 1271.28299,1315.70683 C1260.98232,1297.35978 1239.3545,1296.07924 1214.58173,1297.35978 C1198.06655,1298.21347 1144.40521,1301.70859 1053.59772,1307.84515 C1062.97851,1316.52399 1066.1895,1325.0155 1063.23071,1333.31968 C1060.27191,1341.62386 1033.52834,1404.5173 983,1522 Z" id="N1---Runners"></path>
            <path d="M810.048208,1320.87662 C814.824359,1343.74081 810.745526,1368.07897 797.811711,1393.89109 C784.877896,1419.70322 773.598315,1445.16303 763.972967,1470.27053 C752.808013,1494.90866 752.062372,1512.91704 761.736043,1524.29567 C776.24655,1541.36362 817.670944,1541.68441 825.856704,1540.67307 C834.042464,1539.66172 860.395014,1537.07004 877.159302,1527.91221 C893.92359,1518.75437 896.630461,1515.44681 907.046765,1518.75437 C917.46307,1522.06193 992.334763,1539.16365 1007.09981,1464.61105 C994.12891,1480.91967 987.64346,1479.90832 987.64346,1461.57701 C987.64346,1455.23316 988.493615,1449.58943 990.193924,1444.64582 C1005.82036,1391.96914 1022.08906,1347.0872 1039,1310 L931.223077,1314.78828 C935.512621,1329.97592 935.512621,1343.86575 931.223077,1356.45777 C912.999534,1409.76703 900.724828,1441.63486 894.398957,1452.06123 C884.910151,1467.7008 879.065829,1475.48935 858.009749,1470.27053 C843.840643,1466.75867 851.05455,1444.04214 854.532149,1436.42673 C856.850549,1431.34979 875.015091,1390.80364 909.025777,1314.78828 L810.048208,1320.87662 Z" id="U---Runners"></path>
            <path d="M637.555667,1324.86499 C671.790964,1260.162 677.032552,1232.18768 716.833427,1191.17081 C743.367344,1163.82624 752.338325,1147.06294 743.74637,1140.88092 C724.525065,1130.24669 702.021288,1135.96978 676.235039,1158.05019 C637.555667,1191.17081 625.281446,1205.96343 586.686186,1290.98745 C548.090926,1376.01148 479.402018,1505.09873 426.467104,1558.08924 C373.532189,1611.07974 294.573286,1588.3885 281.573204,1577.90067 C268.573122,1567.41283 267.547095,1550.41415 265.783844,1529.48209 C264.020593,1508.55003 248.291521,1491.46798 219.761746,1500.58214 C200.741895,1506.65826 189.694058,1520.80401 186.618234,1543.0194 C179.872604,1583.80576 194.216413,1617.25553 229.649659,1643.36868 C282.799528,1682.53842 360.432418,1678.9563 426.467104,1629.59153 C492.501789,1580.22676 570.647357,1473.36112 584.647525,1431.42672 C613.092315,1452.79117 640.331747,1487.81557 666.365818,1536.49994 C706.748965,1612.01743 747.694708,1636.6805 958.442433,1657.43864 C1169.19016,1678.19678 1453.61142,1613.38833 1518.76676,1606.22213 C1565.00703,1601.13633 1816.59522,1622.65375 1869.28974,1619.78218 C1883.90123,1618.98593 1991.53784,1628.7051 2076.46101,1584.28609 C2116.81874,1563.17701 2172.58427,1472.92695 2172.58427,1469.4128 C2172.58427,1466.17617 2204.58512,1458.24872 2135.63468,1431.42672 C2109.77205,1421.36605 2095.31164,1455.91614 2089.08545,1481.94056 C2085.58782,1496.56009 2050.91685,1557.79098 2008.78349,1558.08924 C1934.77466,1558.61313 1889.43941,1574.59112 1881.14893,1571.8851 C1828.45547,1554.68589 1566.57205,1541.26771 1530.06446,1543.0194 C1490.64426,1544.91085 1434.43953,1552.78813 1361.45027,1566.65124 C1288.62143,1597.15586 1153.35035,1607.99906 955.637019,1599.18084 C775.09907,1591.12867 743.74637,1553.54698 716.833427,1500.58214 C684.437227,1436.82623 654.506199,1396.64697 627.040344,1380.04437 C767.392158,1347.48136 849.584681,1299.39752 873.617912,1235.79284 C909.667758,1140.38582 895.304871,1084.92208 798.729829,1035.18758 C702.154787,985.453078 592.452775,1005.67266 504.219778,1063.51003 C415.986781,1121.3474 399.356097,1233.53262 443.882179,1304.63032 C469.851371,1346.09702 481.222371,1352.4761 510.314996,1335.6133 C539.407621,1318.75049 554.815091,1298.02438 539.407621,1269.93375 C510.314996,1216.89258 506.196169,1193.62959 516.847424,1170.7719 C536.750425,1128.05987 566.230835,1092.62291 691.112292,1087.32917 C774.366597,1083.80002 808.252566,1118.4139 792.770199,1191.17081 C763.515283,1273.13473 714.623178,1317.69946 646.093883,1324.86499 C639.645422,1326.29439 636.79935,1326.29439 637.555667,1324.86499 Z" id="R---Runners"></path>
            <path d="M976.440164,614.867617 C983.419398,648.223605 977.459132,683.729923 958.559367,721.386572 C939.659602,759.043221 923.177115,796.185892 909.111906,832.814586 C892.79692,868.758524 891.707339,895.03049 905.843161,911.630484 C927.046895,936.530475 987.579021,936.998474 999.540607,935.523046 C1011.50219,934.047619 1050.01032,930.266683 1074.50743,916.906553 C1099.00454,903.546423 1102.96,898.721111 1118.18101,903.546423 C1133.40202,908.371736 1242.8096,933.32099 1264.38529,824.558105 C1245.43133,848.350336 1235.95435,846.874909 1235.95435,820.131823 C1235.95435,810.876944 1237.19666,802.643452 1239.68126,795.431347 C1262.51567,718.582685 1286.28859,653.10557 1311,599 L1153.50907,605.985496 C1159.77725,628.142358 1159.77725,648.405878 1153.50907,666.776056 C1126.8796,744.547578 1108.94297,791.038728 1099.69918,806.249505 C1085.8335,829.065671 1077.29338,840.428185 1046.52481,832.814586 C1025.81995,827.691226 1036.3614,794.550658 1041.44311,783.440729 C1044.83091,776.03411 1071.37417,716.882365 1121.07288,605.985496 L976.440164,614.867617 Z" id="U---Rum"></path>
            <path d="M732.112961,622.503789 C781.066286,529.987299 788.561275,489.987815 845.472863,431.339264 C883.413923,392.24023 896.2416,368.27099 883.955895,359.431545 C856.471197,344.226035 824.292867,352.409277 787.420905,383.981272 C732.112961,431.339264 714.561955,452.49069 659.374284,574.063506 C604.186614,695.636323 505.967796,880.213574 430.275739,955.982799 C354.583682,1031.75202 241.679717,999.306634 223.090795,984.310456 C204.501874,969.314278 203.03475,945.008465 200.513463,915.078463 C197.992176,885.148462 175.501051,860.723442 134.706097,873.755464 C107.509462,882.443478 91.7120708,902.669983 87.3139252,934.434979 C77.6682958,992.753944 98.1786219,1040.58256 148.844903,1077.92083 C224.844325,1133.92824 335.852215,1128.80629 430.275739,1058.22137 C524.699264,987.636448 636.440235,834.8331 656.459186,774.872591 C697.132619,805.420855 736.082499,855.501002 773.308826,925.113031 C831.05301,1033.09279 926.229767,1094.37343 1190.95151,1098.03896 C1455.67325,1101.70449 1683.88088,1017.33 1756.1741,940.086543 C1804.36958,888.590906 1825.69149,850.912789 1820.13984,827.05219 C1818.98612,808.921701 1808.75311,798.982149 1789.44083,797.233535 C1752.87757,793.922946 1751.64811,813.377039 1752.87757,819.670357 C1754.10703,825.963674 1762.71981,834.715387 1756.1741,844.224901 C1751.8103,850.564577 1748.04299,855.994486 1744.87218,860.514628 C1655.62928,975.939207 1469.6519,1027.34707 1186.94003,1014.73822 C928.787372,1003.2247 883.955895,949.487984 845.472863,873.755464 C799.149278,782.593159 756.350662,725.142273 717.077017,701.402804 C917.767196,654.842129 1035.29494,586.088763 1069.66025,495.142705 C1121.20821,358.723619 1100.67061,279.417997 962.577182,208.304412 C824.483758,137.190826 667.619976,166.102078 541.45491,248.80167 C415.289843,331.501262 391.509494,491.910902 455.177695,593.570953 C492.31125,652.862703 508.570733,661.983926 550.17051,637.872404 C591.770287,613.760882 613.801551,584.125355 591.770287,543.959565 C550.17051,468.117895 544.280966,434.854975 559.51128,402.171581 C587.970741,341.099185 630.125015,290.429135 808.694008,282.859813 C927.740003,277.813599 976.19382,327.306749 954.05546,431.339264 C912.223622,548.536537 842.31241,612.258046 744.321824,622.503789 C735.101119,624.547637 731.031498,624.547637 732.112961,622.503789 Z" id="R---Rum"></path>
            <path d="M1227,914 L1349.15371,906.189008 L1442.56055,694.376652 C1451.77471,678.326855 1461.97327,671.074472 1473.15624,672.619503 C1484.33921,674.164535 1486.66661,681.416918 1480.13844,694.376652 L1384.29376,898.905289 L1502.36531,891.335452 L1583.37436,689.124362 C1587.23307,678.121123 1596.82081,672.619503 1612.13758,672.619503 C1621.48687,672.619503 1624.28602,678.121123 1620.53504,689.124362 L1574.41244,793.207998 C1557.7214,828.766373 1553.24112,852.829343 1560.9716,865.39691 C1572.56733,884.24826 1610.8164,910.0148 1649.24099,891.335452 C1687.66558,872.656105 1748.3903,819.984305 1744.57331,784.28021 C1719.11915,806.261909 1708.31326,808.240277 1712.15565,790.215315 C1714.84336,777.606996 1718.40902,772.35124 1724.68365,759.433315 C1739.42231,727.42177 1744.57331,713.392352 1750.19024,695.801291 C1755.80717,678.210229 1772.15088,643.162476 1759.01463,606.602301 C1750.1922,582.048176 1729.57216,581.752658 1677.68025,582.048176 C1643.08564,582.245188 1529.85029,587.776315 1337.97419,598.641557 C1345.80817,610.764423 1346.35337,625.570904 1339.60977,643.060999 C1332.86618,660.551095 1295.32959,750.864095 1227,914 Z" id="Path-2"></path>
            <path d="M1707,1485 L1787.89309,1481.99782 L1834.68443,1328.86748 C1837.5954,1317.14038 1844.60899,1311.74147 1855.72521,1312.67073 C1862.77219,1313.25983 1865.21256,1317.02802 1863.04631,1323.97531 L1857.57022,1348.0723 C1854.89408,1363.61352 1858.22453,1373.25496 1867.56157,1376.99664 C1881.56715,1382.60916 1914.09208,1376.5665 1927.33873,1357.0921 C1940.58537,1337.6177 1949.09423,1307.32632 1940.58537,1285.39921 C1932.07651,1263.4721 1928.71255,1260 1902.09068,1260 L1754.65048,1267.57174 C1765.3541,1276.4241 1768.50574,1288.85314 1764.10542,1304.85888 C1759.7051,1320.86461 1740.66996,1380.91165 1707,1485 Z" id="Path-3"></path>
            <path d="M1366,500 L1453.28346,496.490234 L1514.35895,347.680207 C1523.53174,330.099645 1533.86101,322.313863 1545.34675,324.322862 C1562.57537,327.33636 1565.42237,342.286809 1559.97798,355.725047 L1516.21295,454.590968 C1510.32058,469.76218 1514.83549,482.477009 1529.75769,492.735455 C1544.67989,502.993901 1566.3233,501.568562 1594.68794,488.459439 C1624.27798,470.657273 1638.77504,454.459913 1638.17912,439.867359 C1627.95822,450.984899 1620.15979,452.856567 1614.78383,445.482361 C1611.39168,440.829347 1613.05152,430.771347 1619.76335,415.30836 L1656.32502,333.39457 C1661.83078,319.556301 1661.1501,306.540463 1654.28299,294.347056 C1643.98232,276.056945 1618.43619,276.056945 1592.99067,276.056945 L1545.34675,276.056945 C1588.34439,176.416807 1608.21175,126.731522 1604.94882,127.001091 C1591.52524,128.110087 1552.30233,128.110087 1487.28008,127.001091 C1497.17747,146.14945 1500.64676,159.862834 1497.68797,168.141242 C1494.72917,176.41965 1450.83318,287.039236 1366,500 Z" id="H---The"></path>
            <path d="M1307.31999,258.332837 L1277.55707,258.332837 L1298.58683,205.2821 L1328.02456,205.2821 L1346.30737,151.355198 C1349.23655,141.300113 1345.25031,133.181714 1334.34865,127 L1450.6929,127 L1420.79405,205.2821 L1473,205.2821 L1451.97023,258.332837 L1396.65307,258.332837 L1356.91223,352.923458 L1322.39684,433.642244 C1317.16145,442.829788 1316.21791,449.793115 1319.56622,454.532226 C1329.25076,468.239474 1347.20734,464.547077 1373.43596,443.455036 C1373.43596,460.435559 1354.86266,482.096813 1329.9499,492.140917 C1295.23864,506.135484 1259.79424,513.976544 1237.41358,498.559172 C1222.49314,488.280923 1217.74505,476.291281 1223.16931,462.590244 L1307.31999,258.332837 Z" id="Combined-Shape"></path>
            <polygon id="Rectangle-2-Copy" points="1586.95116 205 1944 205 1922.04884 258 1565 258"></polygon>
        </g>
    </g>
</svg>