<?xml version="1.0" encoding="UTF-8"?>
<svg width="100%" height="100%" fill="currentColor" viewBox="0 0 1158 979" version="1.1" xmlns="http://www.w3.org/2000/svg" xmlns:xlink="http://www.w3.org/1999/xlink">

                <path d="M1082.87744,478.436414 C1077.72941,479.527115 1072.76391,480.533914 1067.96532,481.459978 C1064.64462,482.134035 1061.31195,482.78969 1057.96729,483.426939 C1057.8028,469.420768 1057.01907,455.563494 1055.6422,441.881217 L1056.24458,440.366744 C1056.40197,439.971035 1056.54244,439.568803 1056.6656,439.161141 C1057.86243,435.199746 1059.15748,431.263463 1060.55088,427.351969 C1061.97487,423.354587 1063.48067,419.289456 1065.06837,415.156601 C1065.36428,414.412885 1065.66118,413.670162 1065.95908,412.928429 C1066.56508,418.320213 1067.79417,423.485555 1069.65473,428.397413 C1072.05633,434.73763 1075.87751,440.193943 1080.96831,444.600364 C1081.98448,455.774802 1082.6251,467.057727 1082.87744,478.436414 Z M1079.87676,545.102824 C1052.27055,789.265369 845.042724,979 593.5,979 C387.96541,979 212.017489,852.324411 139.470254,672.787251 C143.844314,670.88882 148.123195,668.590321 152.299503,665.897574 C155.131598,664.10309 157.868453,662.186597 160.508943,660.149034 C228.678503,832.268565 396.623302,954 593,954 C829.405281,954 1024.60647,777.584322 1054.13633,549.220212 C1061.12931,548.103325 1068.21114,546.984127 1075.38183,545.862618 C1076.88997,545.618176 1078.38826,545.364918 1079.87676,545.102824 Z M1026.20888,319.674677 C958.506239,146.591944 790.069561,24 593,24 C347.772172,24 146.881259,213.828902 129.256234,454.557735 C123.994744,454.827242 118.834669,455.70141 113.799048,457.183351 C110.766951,458.075671 107.78472,459.129506 104.853985,460.343475 C119.937574,203.573467 332.945222,0 593.5,0 C794.455771,0 967.12843,121.094399 1042.52807,294.293294 C1037.34921,297.431432 1033.43578,301.985933 1031.0468,307.586 C1029.26866,311.560933 1027.65588,315.590767 1026.20888,319.674677 Z" id="Combined-Shape"></path>
                <path d="M464.434513,284.706499 C467.727863,287.239845 468.551188,290.026484 466.904513,293.066499 C465.257838,296.106514 463.801186,299.019819 462.534513,301.806499 C461.521175,303.833176 459.367863,308.266465 456.074513,315.106499 C452.781163,321.946533 449.044534,329.673123 444.864513,338.286499 C440.684492,346.899876 436.504534,355.44979 432.324513,363.936499 C428.144492,372.423208 424.914525,379.199807 422.634513,384.266499 C416.807817,397.439898 411.107874,410.803098 405.534513,424.356499 C399.961152,437.9099 394.767871,451.526431 389.954513,465.206499 C387.927836,471.28653 385.90119,478.189794 383.874513,485.916499 C381.847836,493.643204 380.201186,501.559792 378.934513,509.666499 C377.66784,517.773206 376.907848,525.943125 376.654513,534.176499 C376.401179,542.409874 377.034506,550.07313 378.554513,557.166499 C380.074521,564.259868 382.607829,570.529805 386.154513,575.976499 C389.701198,581.423193 394.641148,585.539819 400.974513,588.326499 C401.987852,588.833168 403.8245,589.276497 406.484513,589.656499 C409.144527,590.036501 412.057831,590.163166 415.224513,590.036499 C418.391196,589.909832 421.621163,589.466503 424.914513,588.706499 C428.207863,587.946495 431.121167,586.553176 433.654513,584.526499 C433.147844,588.326518 431.691192,591.999815 429.284513,595.546499 C426.877835,599.093184 423.901198,602.323151 420.354513,605.236499 C416.807829,608.149847 412.881201,610.619822 408.574513,612.646499 C404.267825,614.673176 400.087867,616.066495 396.034513,616.826499 C387.167802,618.346507 377.984561,617.71318 368.484513,614.926499 C358.984466,612.139819 351.194544,607.70653 345.114513,601.626499 C338.527814,595.0398 333.587863,587.566541 330.294513,579.206499 C327.001163,570.846457 324.974517,562.106545 324.214513,552.986499 C323.454509,543.866454 323.70784,534.746545 324.974513,525.626499 C326.241186,516.506454 328.014502,507.766541 330.294513,499.406499 C335.867874,480.659739 342.834471,462.293256 351.194513,444.306499 C359.554555,426.319743 368.167802,408.586587 377.034513,391.106499 C383.114544,379.199773 389.194483,367.356558 395.274513,355.576499 C401.354544,343.79644 407.181152,331.82656 412.754513,319.666499 L415.034513,314.726499 C411.741163,316.753176 407.687871,320.743136 402.874513,326.696499 C398.061156,332.649862 393.057873,339.426461 387.864513,347.026499 C382.671154,354.626537 377.477873,362.479792 372.284513,370.586499 C367.091154,378.693206 362.594532,385.913134 358.794513,392.246499 C348.15446,408.966583 337.577899,425.55975 327.064513,442.026499 C316.551127,458.493248 305.974566,475.339746 295.334513,492.566499 C291.027825,499.406533 286.657869,506.246465 282.224513,513.086499 C277.791158,519.926533 273.167871,526.259803 268.354513,532.086499 C265.314498,535.633184 261.197873,538.799819 256.004513,541.586499 C250.811154,544.37318 245.301209,546.273161 239.474513,547.286499 C233.647817,548.299838 227.821209,548.236505 221.994513,547.096499 C216.167817,545.956493 211.227867,543.233187 207.174513,538.926499 C209.707859,536.646488 213.191158,531.516539 217.624513,523.536499 C222.057869,515.556459 227.124485,505.676558 232.824513,493.896499 C238.524542,482.11644 244.477816,469.006571 250.684513,454.566499 C256.891211,440.126427 262.97115,425.306575 268.924513,410.106499 C274.877876,394.906423 280.451154,379.959906 285.644513,365.266499 C290.837873,350.573092 295.207829,337.019895 298.754513,324.606499 C290.901141,335.753222 283.61788,347.279773 276.904513,359.186499 C270.191146,371.093225 263.414547,382.746442 256.574513,394.146499 L234.534513,431.006499 C227.441144,442.913225 220.031219,454.313111 212.304513,465.206499 C204.577808,476.099887 195.901228,486.359784 186.274513,495.986499 C181.207821,501.053191 176.01454,506.18314 170.694513,511.376499 C165.374487,516.569858 159.864542,521.573142 154.164513,526.386499 C148.464485,531.199857 142.574544,535.633146 136.494513,539.686499 C130.414483,543.739853 123.954547,547.033153 117.114513,549.566499 C106.47446,553.619853 95.8978992,555.076505 85.3845133,553.936499 C74.8711274,552.796493 65.1812243,549.059864 56.3145133,542.726499 C49.9811483,538.166476 44.7245342,532.84653 40.5445133,526.766499 C36.3644924,520.686469 33.1978574,514.163201 31.0445133,507.196499 C28.8911692,500.229798 27.6878479,493.00987 27.4345133,485.536499 C27.1811787,478.063128 27.9411711,470.653203 29.7145133,463.306499 C33.0078631,449.119762 38.7078061,435.819895 46.8145133,423.406499 C54.9212205,410.993104 64.4211255,400.226545 75.3145133,391.106499 C80.1278707,387.053146 85.4478175,383.189851 91.2745133,379.516499 C97.1012091,375.843147 103.244481,372.866511 109.704513,370.586499 C116.164546,368.306488 122.687814,366.913168 129.274513,366.406499 C135.861213,365.89983 142.447814,366.659822 149.034513,368.686499 C156.127882,370.966511 162.017823,374.513142 166.704513,379.326499 C171.391203,384.139857 174.937835,389.713134 177.344513,396.046499 C179.751192,402.379864 181.081179,409.09313 181.334513,416.186499 C181.587848,423.279868 180.827855,429.993134 179.054513,436.326499 C175.00116,450.513237 167.527901,462.863113 156.634513,473.376499 C145.741125,483.889885 132.94792,490.159822 118.254513,492.186499 C116.227836,492.439834 113.50453,492.566499 110.084513,492.566499 C106.664496,492.566499 103.117865,492.376501 99.4445133,491.996499 C95.7711616,491.616497 92.3511958,490.98317 89.1845133,490.096499 C86.0178308,489.209828 83.6745209,487.879841 82.1545133,486.106499 C95.3279125,482.559815 107.107795,477.239868 117.494513,470.146499 C127.881232,463.05313 135.734487,453.046564 141.054513,440.126499 C143.841194,433.793134 145.931173,426.88987 147.324513,419.416499 C148.717854,411.943128 148.654521,404.913199 147.134513,398.326499 C145.86784,391.23313 142.194544,386.609843 136.114513,384.456499 C130.034483,382.303155 123.827878,381.986492 117.494513,383.506499 C110.654479,385.026507 104.321209,387.813146 98.4945133,391.866499 C92.6678175,395.919853 87.4745361,400.669805 82.9145133,406.116499 C78.3544905,411.563193 74.4278631,417.516467 71.1345133,423.976499 C67.8411635,430.436531 65.3078555,436.833134 63.5345133,443.166499 C61.5078365,449.753199 60.1145171,456.529798 59.3545133,463.496499 C58.5945095,470.463201 58.7845076,477.2398 59.9245133,483.826499 C61.064519,490.413199 63.4078289,496.493138 66.9545133,502.066499 C70.5011977,507.63986 75.5678137,512.32648 82.1545133,516.126499 C86.7145361,518.91318 91.591154,520.433165 96.7845133,520.686499 C101.977873,520.939834 107.171154,520.496505 112.364513,519.356499 C117.557873,518.216493 122.624489,516.506511 127.564513,514.226499 C132.504538,511.946488 137.127825,509.41318 141.434513,506.626499 C150.554559,500.799803 158.471146,493.833206 165.184513,485.726499 C171.89788,477.619792 178.421148,469.259876 184.754513,460.646499 C196.407905,444.939754 206.921133,428.66325 216.294513,411.816499 C225.667893,394.969748 235.294464,378.186583 245.174513,361.466499 C252.774551,348.546435 260.881137,335.499898 269.494513,322.326499 C278.10789,309.1531 288.241122,297.753214 299.894513,288.126499 C304.707871,284.32648 310.154483,281.349843 316.234513,279.196499 C322.314544,277.043155 328.141152,276.346495 333.714513,277.106499 C339.541209,277.866503 343.974498,278.943159 347.014513,280.336499 C350.054528,281.729839 351.954509,284.199815 352.714513,287.746499 C353.221182,289.773176 351.891196,295.72645 348.724513,305.606499 C345.557831,315.486549 341.31454,327.329763 335.994513,341.136499 C330.674487,354.943235 324.65788,369.889752 317.944513,385.976499 C311.231146,402.063246 304.707878,417.326427 298.374513,431.766499 C295.841167,437.593195 293.181194,443.609801 290.394513,449.816499 C287.607833,456.023197 284.884527,461.976471 282.224513,467.676499 C279.5645,473.376528 277.094525,478.633142 274.814513,483.446499 C272.534502,488.259857 270.634521,492.059819 269.114513,494.846499 C273.674536,489.019803 278.551154,482.243204 283.744513,474.516499 C288.937873,466.789794 293.307829,460.13986 296.854513,454.566499 C309.267909,435.566404 321.237789,416.313263 332.764513,396.806499 C344.291238,377.299735 356.641114,358.17326 369.814513,339.426499 C374.121201,333.346469 378.491158,327.393195 382.924513,321.566499 C387.357869,315.739803 392.107821,310.166526 397.174513,304.846499 C400.214528,301.553149 403.824492,297.753187 408.004513,293.446499 C412.184534,289.139811 416.55449,285.973176 421.114513,283.946499 C424.914532,282.173157 428.967825,280.969836 433.274513,280.336499 C437.581201,279.703163 441.76116,279.449832 445.814513,279.576499 C449.867867,279.703166 453.541163,280.209828 456.834513,281.096499 C460.127863,281.98317 462.661171,283.186492 464.434513,284.706499 Z M499.262513,404.258499 C496.958502,406.946513 494.270529,410.690475 491.198513,415.490499 C488.126498,420.290523 485.150528,425.282473 482.270513,430.466499 C479.390499,435.650525 476.654526,440.642475 474.062513,445.442499 C471.4705,450.242523 469.50252,454.178484 468.158513,457.250499 C465.4705,463.202529 462.878526,469.154469 460.382513,475.106499 C457.886501,481.058529 455.678523,487.106468 453.758513,493.250499 C452.222506,499.010528 451.502513,503.76248 451.598513,507.506499 C451.694514,511.250518 452.798503,513.698493 454.910513,514.850499 C457.022524,516.002505 460.094493,515.666508 464.126513,513.842499 C468.158533,512.01849 473.342482,508.322527 479.678513,502.754499 C485.822544,497.186471 491.582486,491.042533 496.958513,484.322499 C502.33454,477.602466 506.942494,470.594536 510.782513,463.298499 C515.966539,460.802487 519.038508,462.338471 519.998513,467.906499 C515.582491,475.970539 510.590541,483.986459 505.022513,491.954499 C499.454485,499.922539 493.310547,507.266466 486.590513,513.986499 C476.222461,524.930554 466.862555,532.178481 458.510513,535.730499 C450.158472,539.282517 442.910544,539.714513 436.766513,537.026499 C430.238481,534.338486 425.870524,529.970529 423.662513,523.922499 C421.454502,517.874469 420.446512,511.682531 420.638513,505.346499 C421.022515,493.44244 423.134494,481.682557 426.974513,470.066499 C430.814532,458.450441 435.614484,447.55455 441.374513,437.378499 C444.830531,431.234468 448.622493,424.994531 452.750513,418.658499 C456.878534,412.322467 461.630486,406.946521 467.006513,402.530499 C468.926523,400.994491 471.326499,399.794503 474.206513,398.930499 C477.086528,398.066495 480.110497,397.682499 483.278513,397.778499 C486.446529,397.8745 489.470499,398.402494 492.350513,399.362499 C495.230528,400.322504 497.534505,401.954488 499.262513,404.258499 Z M498.974513,377.186499 C494.750492,375.842492 491.102529,373.298518 488.030513,369.554499 C484.958498,365.81048 483.902508,361.250526 484.862513,355.874499 C485.630517,351.266476 486.926504,346.85052 488.750513,342.626499 C490.574522,338.402478 493.886489,335.810504 498.686513,334.850499 C501.374527,334.466497 504.0145,334.466497 506.606513,334.850499 C509.198526,335.234501 511.742501,335.906494 514.238513,336.866499 C519.998542,338.786509 523.694505,341.378483 525.326513,344.642499 C526.958521,347.906515 527.870512,350.306491 528.062513,351.842499 C528.446515,355.682518 528.110519,359.426481 527.054513,363.074499 C525.998508,366.722517 524.126527,369.890486 521.438513,372.578499 C518.366498,375.458514 514.814533,377.234496 510.782513,377.906499 C506.750493,378.578503 502.814532,378.338505 498.974513,377.186499 Z M600.638513,340.322499 C604.670533,337.634486 609.230488,335.522507 614.318513,333.986499 C619.406539,332.450491 624.110492,331.730499 628.430513,331.826499 C632.750535,331.9225 636.2545,332.978489 638.942513,334.994499 C641.630527,337.010509 642.782515,340.226477 642.398513,344.642499 C642.206512,348.098516 641.48652,351.602481 640.238513,355.154499 C638.990507,358.706517 637.454522,362.306481 635.630513,365.954499 C633.806504,369.602517 631.886523,373.058483 629.870513,376.322499 C627.854503,379.586515 625.982522,382.658485 624.254513,385.538499 C620.414494,392.258533 616.142537,398.690468 611.438513,404.834499 C606.73449,410.97853 601.790539,417.026469 596.606513,422.978499 C590.654484,429.698533 584.462545,436.274467 578.030513,442.706499 C571.598481,449.138531 564.926548,455.23447 558.014513,460.994499 C555.902503,462.530507 553.886523,464.066491 551.966513,465.602499 L546.206513,470.210499 C545.63051,470.594501 545.054516,471.122496 544.478513,471.794499 C543.90251,472.466503 543.230517,472.994497 542.462513,473.378499 C541.502508,476.066513 540.590518,478.658487 539.726513,481.154499 C538.862509,483.650512 537.950518,486.242486 536.990513,488.930499 C535.838508,492.962519 535.310513,497.426475 535.406513,502.322499 C535.502514,507.218524 536.606503,511.442481 538.718513,514.994499 C540.830524,518.546517 544.046492,520.802494 548.366513,521.762499 C552.686535,522.722504 558.302479,521.282518 565.214513,517.442499 C568.670531,515.52249 572.126496,513.554509 575.582513,511.538499 C579.038531,509.522489 582.398497,507.362511 585.662513,505.058499 C585.854514,498.722467 586.718506,492.43453 588.254513,486.194499 C589.790521,479.954468 591.758501,473.810529 594.158513,467.762499 C596.558525,461.714469 599.294498,455.810528 602.366513,450.050499 C605.438529,444.29047 608.510498,438.818525 611.582513,433.634499 C615.038531,427.87447 618.878492,421.586533 623.102513,414.770499 C627.326534,407.954465 631.74249,401.138533 636.350513,394.322499 C640.958536,387.506465 645.662489,380.97853 650.462513,374.738499 C655.262537,368.498468 659.96649,362.882524 664.574513,357.890499 C668.414532,353.858479 672.398493,350.066517 676.526513,346.514499 C680.654534,342.962481 685.118489,339.842513 689.918513,337.154499 C693.18253,335.042489 696.590496,333.266506 700.142513,331.826499 C703.694531,330.386492 707.390494,329.666499 711.230513,329.666499 C712.766521,329.666499 714.398505,329.954496 716.126513,330.530499 C717.662521,329.186492 719.486503,328.850496 721.598513,329.522499 C723.710524,330.194503 725.246508,331.106493 726.206513,332.258499 C727.55052,333.794507 728.222513,335.47449 728.222513,337.298499 C728.222513,339.122508 728.126514,340.99449 727.934513,342.914499 C727.35851,350.210536 725.582528,357.698461 722.606513,365.378499 C719.630498,373.058538 715.934535,380.546463 711.518513,387.842499 C707.102491,395.138536 702.302539,402.242465 697.118513,409.154499 C691.934487,416.066534 686.846538,422.40247 681.854513,428.162499 C672.446466,439.298555 662.702564,450.290445 652.622513,461.138499 C642.542463,471.986553 632.030568,482.402449 621.086513,492.386499 L620.510513,494.402499 C619.358508,498.434519 618.542516,502.850475 618.062513,507.650499 C617.582511,512.450523 618.014507,516.578482 619.358513,520.034499 C620.70252,523.490516 623.246495,525.698494 626.990513,526.658499 C630.734532,527.618504 636.062479,526.178518 642.974513,522.338499 C646.814532,520.226489 651.134489,517.010521 655.934513,512.690499 C660.734537,508.370478 665.582489,503.474527 670.478513,498.002499 C675.374538,492.530472 680.030491,486.770529 684.446513,480.722499 C688.862535,474.674469 692.510499,468.866527 695.390513,463.298499 C697.886526,462.338494 699.902506,462.146496 701.438513,462.722499 C702.974521,463.298502 704.03051,465.026485 704.606513,467.906499 C701.726499,473.474527 698.222534,479.522467 694.094513,486.050499 C689.966493,492.578532 685.358539,499.058467 680.270513,505.490499 C675.182488,511.922531 669.758542,518.01847 663.998513,523.778499 C658.238484,529.538528 652.190545,534.434479 645.854513,538.466499 C639.518482,542.498519 633.182545,545.090493 626.846513,546.242499 C620.510482,547.394505 614.65454,547.250506 609.278513,545.810499 C603.902486,544.370492 599.198533,541.490521 595.166513,537.170499 C591.134493,532.850478 588.350521,527.234534 586.814513,520.322499 L577.598513,526.658499 C574.526498,528.77051 571.35853,530.882489 568.094513,532.994499 C560.798477,537.602522 553.166553,540.386494 545.198513,541.346499 C537.230473,542.306504 530.030545,541.394513 523.598513,538.610499 C517.166481,535.826485 511.886534,531.218531 507.758513,524.786499 C503.630493,518.354467 501.758511,510.05055 502.142513,499.874499 C502.334514,493.538467 503.198506,487.202531 504.734513,480.866499 C506.270521,474.530467 508.238501,468.338529 510.638513,462.290499 C513.038525,456.242469 515.774498,450.338528 518.846513,444.578499 C521.918529,438.81847 524.990498,433.346525 528.062513,428.162499 C534.974548,416.450441 542.222475,404.786557 549.806513,393.170499 C557.390551,381.554441 565.886466,370.850548 575.294513,361.058499 C579.134532,357.026479 583.118493,353.234517 587.246513,349.682499 C591.374534,346.130481 595.838489,343.010513 600.638513,340.322499 Z M647.870513,435.650499 C644.990499,440.642524 642.206527,445.634474 639.518513,450.626499 C636.8305,455.618524 634.238526,460.706473 631.742513,465.890499 C639.03855,458.594463 646.142479,450.914539 653.054513,442.850499 C659.966548,434.786459 666.878479,426.338543 673.790513,417.506499 C681.470552,407.906451 688.62248,397.730553 695.246513,386.978499 C701.870546,376.226445 706.910496,364.514563 710.366513,351.842499 C707.294498,354.530513 704.270528,357.266485 701.294513,360.050499 C698.318498,362.834513 695.486527,365.762484 692.798513,368.834499 C689.150495,373.442522 685.310533,378.530471 681.278513,384.098499 C677.246493,389.666527 673.262533,395.426469 669.326513,401.378499 C665.390494,407.330529 661.550532,413.282469 657.806513,419.234499 C654.062495,425.186529 650.750528,430.658474 647.870513,435.650499 Z M554.846513,447.170499 C559.262535,443.138479 563.582492,438.914521 567.806513,434.498499 C572.030534,430.082477 576.158493,425.570522 580.190513,420.962499 C585.374539,414.818468 590.366489,408.482532 595.166513,401.954499 C599.966537,395.426467 604.574491,388.802533 608.990513,382.082499 C619.358565,366.33842 624.014519,357.218512 622.958513,354.722499 C621.902508,352.226487 615.422573,357.986429 603.518513,372.002499 C596.222477,381.218545 589.358545,390.674451 582.926513,400.370499 C576.494481,410.066548 570.302543,420.002448 564.350513,430.178499 L554.846513,447.170499 Z M764.798513,404.258499 C762.494502,406.946513 759.806529,410.690475 756.734513,415.490499 C753.662498,420.290523 750.686528,425.282473 747.806513,430.466499 C744.926499,435.650525 742.190526,440.642475 739.598513,445.442499 C737.0065,450.242523 735.03852,454.178484 733.694513,457.250499 C731.0065,463.202529 728.414526,469.154469 725.918513,475.106499 C723.422501,481.058529 721.214523,487.106468 719.294513,493.250499 C717.758506,499.010528 717.038513,503.76248 717.134513,507.506499 C717.230514,511.250518 718.334503,513.698493 720.446513,514.850499 C722.558524,516.002505 725.630493,515.666508 729.662513,513.842499 C733.694533,512.01849 738.878482,508.322527 745.214513,502.754499 C751.358544,497.186471 757.118486,491.042533 762.494513,484.322499 C767.87054,477.602466 772.478494,470.594536 776.318513,463.298499 C781.502539,460.802487 784.574508,462.338471 785.534513,467.906499 C781.118491,475.970539 776.126541,483.986459 770.558513,491.954499 C764.990485,499.922539 758.846547,507.266466 752.126513,513.986499 C741.758461,524.930554 732.398555,532.178481 724.046513,535.730499 C715.694472,539.282517 708.446544,539.714513 702.302513,537.026499 C695.774481,534.338486 691.406524,529.970529 689.198513,523.922499 C686.990502,517.874469 685.982512,511.682531 686.174513,505.346499 C686.558515,493.44244 688.670494,481.682557 692.510513,470.066499 C696.350532,458.450441 701.150484,447.55455 706.910513,437.378499 C710.366531,431.234468 714.158493,424.994531 718.286513,418.658499 C722.414534,412.322467 727.166486,406.946521 732.542513,402.530499 C734.462523,400.994491 736.862499,399.794503 739.742513,398.930499 C742.622528,398.066495 745.646497,397.682499 748.814513,397.778499 C751.982529,397.8745 755.006499,398.402494 757.886513,399.362499 C760.766528,400.322504 763.070505,401.954488 764.798513,404.258499 Z M764.510513,377.186499 C760.286492,375.842492 756.638529,373.298518 753.566513,369.554499 C750.494498,365.81048 749.438508,361.250526 750.398513,355.874499 C751.166517,351.266476 752.462504,346.85052 754.286513,342.626499 C756.110522,338.402478 759.422489,335.810504 764.222513,334.850499 C766.910527,334.466497 769.5505,334.466497 772.142513,334.850499 C774.734526,335.234501 777.278501,335.906494 779.774513,336.866499 C785.534542,338.786509 789.230505,341.378483 790.862513,344.642499 C792.494521,347.906515 793.406512,350.306491 793.598513,351.842499 C793.982515,355.682518 793.646519,359.426481 792.590513,363.074499 C791.534508,366.722517 789.662527,369.890486 786.974513,372.578499 C783.902498,375.458514 780.350533,377.234496 776.318513,377.906499 C772.286493,378.578503 768.350532,378.338505 764.510513,377.186499 Z M835.646513,459.842499 C838.526528,456.770484 841.3105,453.074521 843.998513,448.754499 C846.686527,444.434478 848.942504,440.114521 850.766513,435.794499 C852.590522,431.474478 853.934509,427.442518 854.798513,423.698499 C855.662518,419.95448 855.710517,417.122509 854.942513,415.202499 L854.366513,414.050499 C851.6785,415.778508 849.086526,417.55449 846.590513,419.378499 C844.094501,421.202508 841.790524,423.170489 839.678513,425.282499 C832.766479,431.618531 826.814538,438.626461 821.822513,446.306499 C817.982494,451.682526 814.478529,457.634467 811.310513,464.162499 C808.142497,470.690532 805.790521,477.314466 804.254513,484.034499 C801.950502,492.482541 801.758504,499.154475 803.678513,504.050499 C805.598523,508.946524 808.766491,512.258491 813.182513,513.986499 C817.598535,515.714508 822.878483,515.954505 829.022513,514.706499 C835.166544,513.458493 841.502481,510.914518 848.030513,507.074499 C856.286555,502.274475 863.918478,496.226536 870.926513,488.930499 C877.934548,481.634463 884.030487,473.090548 889.214513,463.298499 C891.518525,462.338494 893.486505,462.050497 895.118513,462.434499 C896.750521,462.818501 897.85451,464.642483 898.430513,467.906499 C892.670484,478.850554 885.998551,488.642456 878.414513,497.282499 C870.830475,505.922542 862.142562,513.794464 852.350513,520.898499 C841.022457,528.962539 829.838568,533.95449 818.798513,535.874499 C807.758458,537.794509 798.206554,536.786519 790.142513,532.850499 C782.078473,528.914479 776.270531,522.002549 772.718513,512.114499 C769.166496,502.22645 769.214495,489.506577 772.862513,473.954499 C775.358526,463.778448 779.294486,454.034546 784.670513,444.722499 C790.04654,435.410453 796.478476,427.106536 803.966513,419.810499 C808.190534,415.778479 812.798488,412.274514 817.790513,409.298499 C822.782538,406.322484 828.062485,404.162506 833.630513,402.818499 C836.126526,402.242496 838.574501,401.8585 840.974513,401.666499 C843.374525,401.474498 845.9185,401.570497 848.606513,401.954499 C849.566518,401.378496 850.574508,400.946501 851.630513,400.658499 C852.686519,400.370498 853.790508,400.034501 854.942513,399.650499 C860.510541,398.690494 865.502491,399.218489 869.918513,401.234499 C874.334535,403.250509 877.598503,406.274479 879.710513,410.306499 C881.438522,413.762516 882.206514,417.842476 882.014513,422.546499 C881.822512,427.250523 880.910521,432.002475 879.278513,436.802499 C877.646505,441.602523 875.390528,446.018479 872.510513,450.050499 C869.630499,454.082519 866.366532,457.05849 862.718513,458.978499 C859.070495,461.09051 854.750538,462.194499 849.758513,462.290499 C844.766488,462.3865 840.062535,461.570508 835.646513,459.842499 Z M1031.48651,410.306499 C1029.3745,413.186514 1026.83053,416.930476 1023.85451,421.538499 C1020.8785,426.146522 1017.75853,431.138472 1014.49451,436.514499 C1011.2305,441.890526 1008.01453,447.45847 1004.84651,453.218499 C1001.6785,458.978528 998.846526,464.450473 996.350513,469.634499 C991.166487,480.386553 987.134528,489.410463 984.254513,496.706499 C981.374499,504.002536 980.606507,508.706489 981.950513,510.818499 C982.526516,511.778504 983.534506,512.2105 984.974513,512.114499 C986.41452,512.018499 987.998505,511.682502 989.726513,511.106499 C991.454522,510.530496 993.038506,509.810503 994.478513,508.946499 C995.91852,508.082495 996.92651,507.458501 997.502513,507.074499 C1001.72653,504.386486 1005.4705,501.266517 1008.73451,497.714499 C1011.99853,494.162481 1015.0705,490.466518 1017.95051,486.626499 C1020.63853,482.978481 1023.2305,479.138519 1025.72651,475.106499 C1028.22253,471.074479 1030.5265,467.138518 1032.63851,463.298499 C1034.94252,462.722496 1036.91051,462.722496 1038.54251,463.298499 C1040.17452,463.874502 1041.27851,465.410487 1041.85451,467.906499 C1039.1665,472.898524 1036.57453,477.794475 1034.07851,482.594499 C1031.5825,487.394523 1028.70253,492.098476 1025.43851,496.706499 C1022.3665,501.314522 1019.15053,505.730478 1015.79051,509.954499 C1012.4305,514.17852 1008.83053,518.21048 1004.99051,522.050499 C1001.3425,525.698517 997.358535,528.914485 993.038513,531.698499 C988.718492,534.482513 983.87054,535.7785 978.494513,535.586499 C973.118486,535.586499 968.318534,534.050515 964.094513,530.978499 C959.870492,527.906484 956.798523,523.874524 954.878513,518.882499 C953.918508,516.578488 953.246515,513.986514 952.862513,511.106499 C949.790498,515.522521 946.526531,519.554481 943.070513,523.202499 C939.614496,526.850517 935.678535,529.922487 931.262513,532.418499 C925.118483,535.874516 918.686547,537.314502 911.966513,536.738499 C905.24648,536.162496 899.390538,533.570522 894.398513,528.962499 C889.598489,524.546477 886.334522,519.314529 884.606513,513.266499 C882.878505,507.218469 882.014513,501.12253 882.014513,494.978499 C882.206514,487.298461 883.454502,479.714537 885.758513,472.226499 C888.062525,464.738462 891.086495,457.538534 894.830513,450.626499 C898.574532,443.714465 902.894489,437.234529 907.790513,431.186499 C912.686538,425.138469 917.918485,419.618524 923.486513,414.626499 C928.86254,409.634474 934.958479,405.602515 941.774513,402.530499 C948.590547,399.458484 955.646477,398.114497 962.942513,398.498499 C970.046549,398.882501 976.286486,401.042479 981.662513,404.978499 C987.03854,408.914519 990.974501,414.146467 993.470513,420.674499 C995.774525,417.986486 998.414498,415.53851 1001.39051,413.330499 C1004.36653,411.122488 1007.4865,409.442505 1010.75051,408.290499 C1014.20653,406.946492 1017.90249,406.370498 1021.83851,406.562499 C1025.77453,406.7545 1028.9905,408.002488 1031.48651,410.306499 Z M940.478513,489.218499 C949.118556,483.074468 956.894479,475.202547 963.806513,465.602499 C970.718548,456.002451 975.230503,445.826553 977.342513,435.074499 C978.302518,431.042479 978.206519,427.058519 977.054513,423.122499 C975.902508,419.186479 972.926537,416.834503 968.126513,416.066499 C964.286494,415.490496 960.73453,416.258489 957.470513,418.370499 C954.206497,420.48251 951.230527,422.786487 948.542513,425.282499 C940.286472,433.346539 933.614539,442.562447 928.526513,452.930499 C923.438488,463.298551 919.550527,474.050443 916.862513,485.186499 C914.366501,496.322555 914.894496,503.666481 918.446513,507.218499 C921.998531,510.770517 926.846483,510.914515 932.990513,507.650499 C937.022533,505.538489 940.814496,502.946515 944.366513,499.874499 C947.918531,496.802484 951.326497,493.634515 954.590513,490.370499 C951.9025,490.946502 949.166527,491.282499 946.382513,491.378499 C943.598499,491.4745 941.630519,490.754507 940.478513,489.218499 Z M1178.36651,463.298499 C1184.31854,460.802487 1187.39051,462.338471 1187.58251,467.906499 C1181.82248,478.850554 1175.58255,489.170451 1168.86251,498.866499 C1162.14248,508.562548 1154.55856,517.442459 1146.11051,525.506499 C1142.4625,528.962516 1138.23854,532.178484 1133.43851,535.154499 C1128.63849,538.130514 1123.74254,540.242493 1118.75051,541.490499 C1113.75849,542.738505 1108.76654,542.834504 1103.77451,541.778499 C1098.78249,540.722494 1094.27053,537.794523 1090.23851,532.994499 C1086.7825,529.15448 1084.67052,524.738524 1083.90251,519.746499 C1083.13451,514.754474 1083.18251,509.570526 1084.04651,504.194499 C1084.91052,498.818472 1086.2545,493.538525 1088.07851,488.354499 C1089.90252,483.170473 1091.6785,478.370521 1093.40651,473.954499 C1097.24653,465.314456 1101.71049,457.010539 1106.79851,449.042499 C1111.88654,441.074459 1116.54249,432.770542 1120.76651,424.130499 C1115.19849,428.546521 1109.19855,433.730469 1102.76651,439.682499 C1096.33448,445.634529 1090.91054,451.298472 1086.49451,456.674499 C1080.73448,463.586534 1075.26254,470.642463 1070.07851,477.842499 C1064.89449,485.042535 1059.80654,492.386462 1054.81451,499.874499 C1052.3185,503.714518 1049.91852,507.50648 1047.61451,511.250499 C1045.3105,514.994518 1043.10252,518.78648 1040.99051,522.626499 L1036.67051,529.106499 C1034.9425,531.698512 1032.54253,532.8985 1029.47051,532.706499 C1027.1665,532.706499 1024.86252,532.034506 1022.55851,530.690499 C1020.2545,529.346492 1018.19052,527.714509 1016.36651,525.794499 C1014.5425,523.87449 1013.10252,521.81051 1012.04651,519.602499 C1010.99051,517.394488 1010.65451,515.426508 1011.03851,513.698499 C1014.11053,499.682429 1019.34248,486.194564 1026.73451,473.234499 C1034.12655,460.274434 1041.66247,447.74656 1049.34251,435.650499 C1052.60653,430.658474 1055.7265,425.474526 1058.70251,420.098499 C1061.67853,414.722472 1064.9905,409.538524 1068.63851,404.546499 C1070.36652,402.050487 1072.6225,400.322504 1075.40651,399.362499 C1078.19053,398.402494 1082.07849,399.362485 1087.07051,402.242499 C1089.37452,403.586506 1091.15051,404.882493 1092.39851,406.130499 C1093.64652,407.378505 1094.27051,408.91449 1094.27051,410.738499 C1094.27051,412.562508 1093.55052,414.818486 1092.11051,417.506499 C1090.67051,420.194513 1088.51053,423.554479 1085.63051,427.586499 C1082.9425,431.234517 1080.11053,435.650473 1077.13451,440.834499 C1074.1585,446.018525 1071.61452,450.722478 1069.50251,454.946499 C1072.57453,451.490482 1076.27049,447.362523 1080.59051,442.562499 C1084.91053,437.762475 1089.47049,432.962523 1094.27051,428.162499 C1099.07054,423.362475 1103.91849,418.946519 1108.81451,414.914499 C1113.71054,410.882479 1118.27049,407.81051 1122.49451,405.698499 C1127.67854,403.010486 1133.77448,402.050495 1140.78251,402.818499 C1147.79055,403.586503 1154.07849,406.658472 1159.64651,412.034499 C1161.18252,413.570507 1161.85451,414.866494 1161.66251,415.922499 C1161.47051,416.978504 1160.89452,418.46649 1159.93451,420.386499 C1158.2065,424.418519 1156.19052,428.450479 1153.88651,432.482499 C1151.5825,436.70652 1149.18253,440.882479 1146.68651,445.010499 C1144.1905,449.13852 1141.79052,453.410477 1139.48651,457.826499 C1136.2225,463.778529 1132.71853,470.066466 1128.97451,476.690499 C1125.23049,483.314532 1122.01453,489.890467 1119.32651,496.418499 C1116.4465,504.290539 1115.63051,510.050481 1116.87851,513.698499 C1118.12652,517.346517 1120.62249,519.1225 1124.36651,519.026499 C1128.11053,518.930499 1132.76649,517.058517 1138.33451,513.410499 C1143.90254,509.762481 1149.56648,504.482534 1155.32651,497.570499 C1159.35853,492.578474 1163.29449,487.298527 1167.13451,481.730499 C1170.97453,476.162471 1174.7185,470.018533 1178.36651,463.298499 Z M1178.36651,463.298499 C1179.32652,461.762491 1181.3425,460.994499 1184.41451,460.994499 C1187.48653,460.994499 1190.4625,462.91448 1193.34251,466.754499 C1196.79853,471.170521 1199.24651,476.546467 1200.68651,482.882499 C1202.12652,489.218531 1202.70251,496.130462 1202.41451,503.618499 C1202.12651,511.106537 1200.97452,518.930458 1198.95851,527.090499 C1196.9425,535.25054 1194.11053,543.458458 1190.46251,551.714499 C1183.93448,566.882575 1175.96656,579.266451 1166.55851,588.866499 C1157.15047,598.466547 1146.49457,605.954472 1134.59051,611.330499 C1122.68645,616.706526 1109.72658,620.210491 1095.71051,621.842499 C1081.69444,623.474507 1066.81459,623.906503 1051.07051,623.138499 C1015.74234,621.21849 982.478669,619.682505 951.278513,618.530499 C920.078357,617.378493 890.654652,616.7065 863.006513,616.514499 C835.358375,616.322498 809.150637,616.706494 784.382513,617.666499 C759.614389,618.626504 735.950626,620.498485 713.390513,623.282499 C690.8304,626.066513 669.134617,629.810476 648.302513,634.514499 C627.470409,639.218523 607.070613,645.026465 587.102513,651.938499 C581.918487,653.666508 577.934527,654.962495 575.150513,655.826499 C572.366499,656.690503 570.494518,656.834502 569.534513,656.258499 C568.574508,655.682496 568.43051,654.194511 569.102513,651.794499 C569.774517,649.394487 571.070504,645.890522 572.990513,641.282499 C577.790537,630.722446 584.270472,621.458539 592.430513,613.490499 C600.590554,605.522459 609.470465,598.802527 619.070513,593.330499 C628.670561,587.858472 638.414464,583.538515 648.302513,580.370499 C658.190563,577.202483 667.166473,574.946506 675.230513,573.602499 C694.62261,570.530484 714.590411,568.706502 735.134513,568.130499 C755.678616,567.554496 776.606407,567.794494 797.918513,568.850499 C819.23062,569.906504 840.782404,571.490489 862.574513,573.602499 C884.366622,575.71451 906.110405,577.826489 927.806513,579.938499 C949.502622,582.05051 971.102406,583.970491 992.606513,585.698499 C1014.11062,587.426508 1035.32641,588.386498 1056.25451,588.578499 C1066.43056,588.7705 1077.51845,588.7705 1089.51851,588.578499 C1101.51857,588.386498 1113.18246,586.994512 1124.51051,584.402499 C1135.83857,581.810486 1146.35046,577.538529 1156.04651,571.586499 C1165.74256,565.634469 1173.47048,556.994556 1179.23051,545.666499 C1183.07053,537.79446 1185.9985,529.874539 1188.01451,521.906499 C1190.03052,513.938459 1191.08651,506.498534 1191.18251,499.586499 C1191.27851,492.674465 1190.36652,486.530526 1188.44651,481.154499 C1186.5265,475.778472 1183.55053,471.746513 1179.51851,469.058499 C1178.55851,468.482496 1177.93451,467.666504 1177.64651,466.610499 C1177.35851,465.554494 1177.59851,464.450505 1178.36651,463.298499 Z" id="Millican&lt;-Copy" transform="translate(614.936763, 466.706603) rotate(-12.000000) translate(-614.936763, -466.706603) "></path>
</svg>
